<mxfile host="app.diagrams.net" agent="Mozilla/5.0 (Windows NT 10.0; Win64; x64) AppleWebKit/537.36 (KHTML, like Gecko) Chrome/123.0.0.0 Safari/537.36" version="24.7.6" pages="2">
  <diagram name="Página-1" id="QX_FI9WJUcfYYBmX8Bwh">
    <mxGraphModel dx="954" dy="600" grid="1" gridSize="10" guides="1" tooltips="1" connect="1" arrows="1" fold="1" page="1" pageScale="1" pageWidth="827" pageHeight="1169" math="0" shadow="0">
      <root>
        <mxCell id="0" />
        <mxCell id="1" parent="0" />
        <mxCell id="Y-pKDUuyLgK6rK2YpaqO-1" value="" style="whiteSpace=wrap;html=1;aspect=fixed;" vertex="1" parent="1">
          <mxGeometry x="120" y="30" width="640" height="640" as="geometry" />
        </mxCell>
        <mxCell id="Y-pKDUuyLgK6rK2YpaqO-2" value="&lt;font size=&quot;1&quot; color=&quot;#91423f&quot;&gt;&lt;b style=&quot;font-size: 18px;&quot;&gt;Sistema de vendas&lt;/b&gt;&lt;/font&gt;" style="text;html=1;align=center;verticalAlign=middle;whiteSpace=wrap;rounded=0;" vertex="1" parent="1">
          <mxGeometry x="240" y="90" width="380" height="50" as="geometry" />
        </mxCell>
        <mxCell id="Y-pKDUuyLgK6rK2YpaqO-3" value="Usuario&lt;div&gt;&lt;br&gt;&lt;/div&gt;" style="shape=umlActor;verticalLabelPosition=bottom;verticalAlign=top;html=1;outlineConnect=0;fillColor=#dae8fc;strokeColor=#6c8ebf;" vertex="1" parent="1">
          <mxGeometry x="30" y="250" width="30" height="60" as="geometry" />
        </mxCell>
        <mxCell id="Y-pKDUuyLgK6rK2YpaqO-4" value="Cadastrar produtos" style="ellipse;whiteSpace=wrap;html=1;fillColor=#f8cecc;strokeColor=#b85450;" vertex="1" parent="1">
          <mxGeometry x="230" y="170" width="140" height="60" as="geometry" />
        </mxCell>
        <mxCell id="Y-pKDUuyLgK6rK2YpaqO-5" value="" style="endArrow=none;html=1;rounded=0;exitX=0;exitY=0.5;exitDx=0;exitDy=0;" edge="1" parent="1" source="Y-pKDUuyLgK6rK2YpaqO-4">
          <mxGeometry width="50" height="50" relative="1" as="geometry">
            <mxPoint x="390" y="230" as="sourcePoint" />
            <mxPoint x="70" y="260" as="targetPoint" />
            <Array as="points" />
          </mxGeometry>
        </mxCell>
        <mxCell id="Y-pKDUuyLgK6rK2YpaqO-7" value="" style="endArrow=none;html=1;rounded=0;" edge="1" parent="1" target="Y-pKDUuyLgK6rK2YpaqO-8">
          <mxGeometry width="50" height="50" relative="1" as="geometry">
            <mxPoint x="70" y="260" as="sourcePoint" />
            <mxPoint x="290" y="280" as="targetPoint" />
          </mxGeometry>
        </mxCell>
        <mxCell id="Y-pKDUuyLgK6rK2YpaqO-8" value="Cadastrar Cliente" style="ellipse;whiteSpace=wrap;html=1;fillColor=#f8cecc;strokeColor=#b85450;" vertex="1" parent="1">
          <mxGeometry x="370" y="240" width="140" height="50" as="geometry" />
        </mxCell>
        <mxCell id="Y-pKDUuyLgK6rK2YpaqO-9" value="" style="endArrow=none;html=1;rounded=0;" edge="1" parent="1" target="Y-pKDUuyLgK6rK2YpaqO-10">
          <mxGeometry width="50" height="50" relative="1" as="geometry">
            <mxPoint x="70" y="260" as="sourcePoint" />
            <mxPoint x="480" y="370" as="targetPoint" />
          </mxGeometry>
        </mxCell>
        <mxCell id="Y-pKDUuyLgK6rK2YpaqO-10" value="Cancelar Pedido" style="ellipse;whiteSpace=wrap;html=1;fillColor=#f8cecc;strokeColor=#b85450;" vertex="1" parent="1">
          <mxGeometry x="380" y="300" width="120" height="50" as="geometry" />
        </mxCell>
        <mxCell id="Y-pKDUuyLgK6rK2YpaqO-11" value="Cliente" style="shape=umlActor;verticalLabelPosition=bottom;verticalAlign=top;html=1;outlineConnect=0;fillColor=#dae8fc;strokeColor=#6c8ebf;" vertex="1" parent="1">
          <mxGeometry x="780" y="250" width="30" height="60" as="geometry" />
        </mxCell>
        <mxCell id="Y-pKDUuyLgK6rK2YpaqO-13" value="" style="endArrow=none;html=1;rounded=0;exitX=1;exitY=0.5;exitDx=0;exitDy=0;" edge="1" parent="1" source="Y-pKDUuyLgK6rK2YpaqO-8" target="Y-pKDUuyLgK6rK2YpaqO-11">
          <mxGeometry width="50" height="50" relative="1" as="geometry">
            <mxPoint x="430" y="420" as="sourcePoint" />
            <mxPoint x="480" y="370" as="targetPoint" />
          </mxGeometry>
        </mxCell>
        <mxCell id="Y-pKDUuyLgK6rK2YpaqO-14" value="" style="endArrow=none;html=1;rounded=0;exitX=1;exitY=0.5;exitDx=0;exitDy=0;" edge="1" parent="1" source="Y-pKDUuyLgK6rK2YpaqO-10">
          <mxGeometry width="50" height="50" relative="1" as="geometry">
            <mxPoint x="430" y="420" as="sourcePoint" />
            <mxPoint x="780" y="280" as="targetPoint" />
          </mxGeometry>
        </mxCell>
        <mxCell id="Y-pKDUuyLgK6rK2YpaqO-15" value="Emitir relatorio de vendas" style="ellipse;whiteSpace=wrap;html=1;fillColor=#f8cecc;strokeColor=#b85450;" vertex="1" parent="1">
          <mxGeometry x="210" y="340" width="120" height="50" as="geometry" />
        </mxCell>
        <mxCell id="Y-pKDUuyLgK6rK2YpaqO-16" value="" style="endArrow=none;html=1;rounded=0;exitX=0;exitY=0.5;exitDx=0;exitDy=0;" edge="1" parent="1" source="Y-pKDUuyLgK6rK2YpaqO-15">
          <mxGeometry width="50" height="50" relative="1" as="geometry">
            <mxPoint x="430" y="420" as="sourcePoint" />
            <mxPoint x="70" y="290" as="targetPoint" />
          </mxGeometry>
        </mxCell>
        <mxCell id="Y-pKDUuyLgK6rK2YpaqO-17" value="Cadastrar pedido" style="ellipse;whiteSpace=wrap;html=1;fillColor=#f8cecc;strokeColor=#b85450;" vertex="1" parent="1">
          <mxGeometry x="380" y="370" width="120" height="50" as="geometry" />
        </mxCell>
        <mxCell id="Y-pKDUuyLgK6rK2YpaqO-22" value="" style="endArrow=none;html=1;rounded=0;exitX=1;exitY=0.5;exitDx=0;exitDy=0;" edge="1" parent="1" source="Y-pKDUuyLgK6rK2YpaqO-17" target="Y-pKDUuyLgK6rK2YpaqO-11">
          <mxGeometry width="50" height="50" relative="1" as="geometry">
            <mxPoint x="430" y="420" as="sourcePoint" />
            <mxPoint x="480" y="370" as="targetPoint" />
          </mxGeometry>
        </mxCell>
        <mxCell id="Y-pKDUuyLgK6rK2YpaqO-23" value="Consultar pedido" style="ellipse;whiteSpace=wrap;html=1;fillColor=#f8cecc;strokeColor=#b85450;" vertex="1" parent="1">
          <mxGeometry x="380" y="450" width="120" height="50" as="geometry" />
        </mxCell>
        <mxCell id="Y-pKDUuyLgK6rK2YpaqO-24" value="" style="endArrow=none;html=1;rounded=0;" edge="1" parent="1" target="Y-pKDUuyLgK6rK2YpaqO-11">
          <mxGeometry width="50" height="50" relative="1" as="geometry">
            <mxPoint x="490" y="480" as="sourcePoint" />
            <mxPoint x="780" y="380" as="targetPoint" />
          </mxGeometry>
        </mxCell>
      </root>
    </mxGraphModel>
  </diagram>
  <diagram id="WWosEM4nqofx4WhOv12V" name="Página-2">
    <mxGraphModel dx="954" dy="600" grid="1" gridSize="10" guides="1" tooltips="1" connect="1" arrows="1" fold="1" page="1" pageScale="1" pageWidth="827" pageHeight="1169" math="0" shadow="0">
      <root>
        <mxCell id="0" />
        <mxCell id="1" parent="0" />
        <mxCell id="fg9cczcKI1-f1jRQWMMb-18" value="Usuario&lt;div&gt;&lt;br&gt;&lt;/div&gt;" style="shape=umlActor;verticalLabelPosition=bottom;verticalAlign=top;html=1;outlineConnect=0;fillColor=#fff2cc;strokeColor=#d6b656;" vertex="1" parent="1">
          <mxGeometry x="90" y="200" width="30" height="60" as="geometry" />
        </mxCell>
        <mxCell id="fg9cczcKI1-f1jRQWMMb-19" value="" style="whiteSpace=wrap;html=1;aspect=fixed;" vertex="1" parent="1">
          <mxGeometry x="170" y="170" width="550" height="550" as="geometry" />
        </mxCell>
        <mxCell id="jKlhv2nT7vRRiWOLKwgX-1" value="&lt;font size=&quot;1&quot; color=&quot;#91423f&quot;&gt;&lt;b style=&quot;font-size: 18px;&quot;&gt;Sistema de vendas&lt;/b&gt;&lt;/font&gt;" style="text;html=1;align=center;verticalAlign=middle;whiteSpace=wrap;rounded=0;" vertex="1" parent="1">
          <mxGeometry x="280" y="180" width="380" height="50" as="geometry" />
        </mxCell>
        <mxCell id="jKlhv2nT7vRRiWOLKwgX-2" value="Cadastrar cliente" style="ellipse;whiteSpace=wrap;html=1;fillColor=#ffe6cc;strokeColor=#d79b00;" vertex="1" parent="1">
          <mxGeometry x="280" y="220" width="120" height="50" as="geometry" />
        </mxCell>
        <mxCell id="jKlhv2nT7vRRiWOLKwgX-3" value="Cadastrar vendas" style="ellipse;whiteSpace=wrap;html=1;fillColor=#ffe6cc;strokeColor=#d79b00;" vertex="1" parent="1">
          <mxGeometry x="280" y="300" width="120" height="50" as="geometry" />
        </mxCell>
        <mxCell id="jKlhv2nT7vRRiWOLKwgX-4" value="Fazer backups" style="ellipse;whiteSpace=wrap;html=1;fillColor=#ffe6cc;strokeColor=#d79b00;" vertex="1" parent="1">
          <mxGeometry x="354" y="490" width="120" height="50" as="geometry" />
        </mxCell>
        <mxCell id="jKlhv2nT7vRRiWOLKwgX-5" value="" style="endArrow=none;html=1;rounded=0;entryX=0;entryY=0.5;entryDx=0;entryDy=0;" edge="1" parent="1" source="fg9cczcKI1-f1jRQWMMb-18" target="jKlhv2nT7vRRiWOLKwgX-2">
          <mxGeometry width="50" height="50" relative="1" as="geometry">
            <mxPoint x="480" y="420" as="sourcePoint" />
            <mxPoint x="530" y="370" as="targetPoint" />
          </mxGeometry>
        </mxCell>
        <mxCell id="jKlhv2nT7vRRiWOLKwgX-6" value="" style="endArrow=none;html=1;rounded=0;entryX=0;entryY=0.5;entryDx=0;entryDy=0;" edge="1" parent="1" target="jKlhv2nT7vRRiWOLKwgX-3">
          <mxGeometry width="50" height="50" relative="1" as="geometry">
            <mxPoint x="120" y="230" as="sourcePoint" />
            <mxPoint x="530" y="370" as="targetPoint" />
          </mxGeometry>
        </mxCell>
        <mxCell id="jKlhv2nT7vRRiWOLKwgX-7" value="sistema&lt;div&gt;&lt;br&gt;&lt;/div&gt;" style="shape=umlActor;verticalLabelPosition=bottom;verticalAlign=top;html=1;outlineConnect=0;fillColor=#fff2cc;strokeColor=#d6b656;" vertex="1" parent="1">
          <mxGeometry x="590" y="520" width="30" height="60" as="geometry" />
        </mxCell>
        <mxCell id="jKlhv2nT7vRRiWOLKwgX-8" value="" style="endArrow=none;html=1;rounded=0;exitX=1;exitY=0.5;exitDx=0;exitDy=0;" edge="1" parent="1" source="jKlhv2nT7vRRiWOLKwgX-4" target="jKlhv2nT7vRRiWOLKwgX-7">
          <mxGeometry width="50" height="50" relative="1" as="geometry">
            <mxPoint x="630" y="440" as="sourcePoint" />
            <mxPoint x="680" y="390" as="targetPoint" />
          </mxGeometry>
        </mxCell>
      </root>
    </mxGraphModel>
  </diagram>
</mxfile>
